<svg version="1.1" xmlns='http://www.w3.org/2000/svg'>
  <defs>
    <symbol id="background-small-image" width='40' height='40' viewBox='0 0 40 40'>
      <g fill-rule='evenodd'>
        <g fill-opacity='1'>
          <path
            d='M0 38.59l2.83-2.83 1.41 1.41L1.41 40H0v-1.41zM0 1.4l2.83 2.83 1.41-1.41L1.41 0H0v1.41zM38.59 40l-2.83-2.83 1.41-1.41L40 38.59V40h-1.41zM40 1.41l-2.83 2.83-1.41-1.41L38.59 0H40v1.41zM20 18.6l2.83-2.83 1.41 1.41L21.41 20l2.83 2.83-1.41 1.41L20 21.41l-2.83 2.83-1.41-1.41L18.59 20l-2.83-2.83 1.41-1.41L20 18.59z'/>
        </g>
      </g>
    </symbol>
  </defs>

  <defs>
    <symbol id="dashboard" width="36" height="36" viewBox="0 0 24 24">
      <path
        d="M4 13h6c.552 0 1-.447 1-1V4c0-.553-.448-1-1-1H4C3.448 3 3 3.447 3 4v8C3 12.553 3.448 13 4 13zM3 20c0 .553.448 1 1 1h6c.552 0 1-.447 1-1v-4c0-.553-.448-1-1-1H4c-.552 0-1 .447-1 1V20zM13 20c0 .553.447 1 1 1h6c.553 0 1-.447 1-1v-7c0-.553-.447-1-1-1h-6c-.553 0-1 .447-1 1V20zM14 10h6c.553 0 1-.447 1-1V4c0-.553-.447-1-1-1h-6c-.553 0-1 .447-1 1v5C13 9.553 13.447 10 14 10z"/>
    </symbol>
  </defs>

  <defs>
    <symbol id="invert_colors" width="36" height="36" viewBox="0 0 24 24">
      <path d="M24 0H0v24h24z" fill="none"/>
      <path
        d="M17.66 7.93L12 2.27 6.34 7.93c-3.12 3.12-3.12 8.19 0 11.31C7.9 20.8 9.95 21.58 12 21.58c2.05 0 4.1-.78 5.66-2.34 3.12-3.12 3.12-8.19 0-11.31zM12 19.59c-1.6 0-3.11-.62-4.24-1.76C6.62 16.69 6 15.19 6 13.59s.62-3.11 1.76-4.24L12 5.1v14.49z"/>
    </symbol>
  </defs>

  <defs>
    <symbol id="settings" width="36" height="36" viewBox="0 0 24 24">
      <path d="M0 0h24v24H0z" fill="none"/>
      <path
        d="M5 2c0-.55-.45-1-1-1s-1 .45-1 1v4H1v6h6V6H5V2zm4 14c0 1.3.84 2.4 2 2.82V23h2v-4.18c1.16-.41 2-1.51 2-2.82v-2H9v2zm-8 0c0 1.3.84 2.4 2 2.82V23h2v-4.18C6.16 18.4 7 17.3 7 16v-2H1v2zM21 6V2c0-.55-.45-1-1-1s-1 .45-1 1v4h-2v6h6V6h-2zm-8-4c0-.55-.45-1-1-1s-1 .45-1 1v4H9v6h6V6h-2V2zm4 14c0 1.3.84 2.4 2 2.82V23h2v-4.18c1.16-.41 2-1.51 2-2.82v-2h-6v2z"/>
    </symbol>
  </defs>

  <defs>
    <symbol id="perm-media" viewBox="0 0 1024 1024">
      <path
        d="M85.333333 256l-85.333333 0 0 213.333333 0.426667 0-0.426667 384c0 47.146667 38.186667 85.333333 85.333333 85.333333l768 0 0-85.333333-768 0 0-597.333333zM938.666667 170.666667l-341.333333 0-85.333333-85.333333-256 0c-47.146667 0-84.906667 38.186667-84.906667 85.333333l-0.426667 512c0 47.146667 38.186667 85.333333 85.333333 85.333333l682.666667 0c47.146667 0 85.333333-38.186667 85.333333-85.333333l0-426.666667c0-47.146667-38.186667-85.333333-85.333333-85.333333zM298.666667 640l192-256 149.333333 192.213333 106.666667-128.213333 149.333333 192-597.333333 0z"/>
    </symbol>
  </defs>

  <defs>
    <symbol id="button" viewBox="0 0 186 186" xml:space="preserve">
          <path d="M186,24.333C186,10.894,175.106,0,161.667,0H24.333C10.894,0,0,10.894,0,24.333v137.333C0,175.106,10.894,186,24.333,186
            h137.333C175.106,186,186,175.106,186,161.667V24.333z M92.5,43.142c13.111,0,23.74,10.629,23.74,23.74
            c0,13.112-10.629,23.74-23.74,23.74s-23.74-10.629-23.74-23.74C68.76,53.771,79.389,43.142,92.5,43.142z M130.949,153H55.717
            c-7.173,0-12.988-5.888-12.988-13.061c0-20.497,12.636-38.106,30.539-45.345c5.457,3.795,12.083,6.025,19.233,6.025
            c7.412,0,14.261-2.396,19.827-6.448c18.469,6.962,31.61,24.863,31.61,45.768C143.938,147.112,138.123,153,130.949,153z"/>
    </symbol>
  </defs>

  <defs>
    <symbol id="clear" viewBox="0 0 1024 1024" >
      <path d="M761.6 701.44a21.333333 21.333333 0 0 1 0 30.293333l-29.866667 29.866667a21.333333 21.333333 0 0 1-30.293333 0L512 572.16l-189.44 189.44a21.333333 21.333333 0 0 1-30.293333 0l-29.866667-29.866667a21.333333 21.333333 0 0 1 0-30.293333L451.84 512 262.4 322.56a21.333333 21.333333 0 0 1 0-30.293333l29.866667-29.866667a21.333333 21.333333 0 0 1 30.293333 0L512 451.84l189.44-189.44a21.333333 21.333333 0 0 1 30.293333 0l29.866667 29.866667a21.333333 21.333333 0 0 1 0 30.293333L572.16 512z"/>
    </symbol>
  </defs>

  <defs>
    <symbol id="close" viewBox="0 0 1024 1024">
      <path d="M512 512m-512 0a512 512 0 1 0 1024 0 512 512 0 1 0-1024 0Z" fill="#878787" /><path d="M555.323077 512l185.107692-185.107692c11.815385-11.815385 11.815385-31.507692 0-43.323077s-31.507692-11.815385-43.323077 0L512 468.676923 326.892308 283.569231c-11.815385-11.815385-31.507692-11.815385-43.323077 0s-11.815385 31.507692 0 43.323077l185.107692 185.107692-185.107692 185.107692c-11.815385 11.815385-11.815385 31.507692 0 43.323077 7.876923 3.938462 15.753846 7.876923 23.630769 7.876923s15.753846-3.938462 19.692308-7.876923l185.107692-185.107692 185.107692 185.107692c3.938462 3.938462 11.815385 7.876923 19.692308 7.876923s15.753846-3.938462 19.692308-7.876923c11.815385-11.815385 11.815385-31.507692 0-43.323077L555.323077 512z"/>
    </symbol>
  </defs>

  <defs>
    <symbol id="clear" viewBox="0 0 1024 1024">
      <path d="M761.6 701.44a21.333333 21.333333 0 0 1 0 30.293333l-29.866667 29.866667a21.333333 21.333333 0 0 1-30.293333 0L512 572.16l-189.44 189.44a21.333333 21.333333 0 0 1-30.293333 0l-29.866667-29.866667a21.333333 21.333333 0 0 1 0-30.293333L451.84 512 262.4 322.56a21.333333 21.333333 0 0 1 0-30.293333l29.866667-29.866667a21.333333 21.333333 0 0 1 30.293333 0L512 451.84l189.44-189.44a21.333333 21.333333 0 0 1 30.293333 0l29.866667 29.866667a21.333333 21.333333 0 0 1 0 30.293333L572.16 512z"/>
    </symbol>
  </defs>


  <defs>
    <symbol id="done" viewBox="0 0 1024 1024">
      <path d="M846.933333 309.333333l-452.266666 452.266667a21.333333 21.333333 0 0 1-30.293334 0l-229.973333-229.973333a21.333333 21.333333 0 0 1 0-30.293334l29.866667-29.866666a21.333333 21.333333 0 0 1 30.293333 0l184.746667 184.746666 407.466666-407.466666a21.76 21.76 0 0 1 30.293334 0l29.866666 30.293333a21.333333 21.333333 0 0 1 0 30.293333z"/>
    </symbol>
  </defs>

  <defs>
    <symbol id="edit" viewBox="0 0 1024 1024">
      <path d="M128 736V896h160l472.106667-472.106667-160-160L128 736z m755.413333-435.413333c16.64-16.64 16.64-43.733333 0-60.373334l-99.626666-99.626666c-16.64-16.64-43.733333-16.64-60.373334 0l-78.08 78.08 160 160 78.08-78.08z"/>
    </symbol>
  </defs>

  <defs>
    <symbol id="edit-square" viewBox="0 0 1024 1024">
      <path d="M873.172341 122.706693 151.361825 122.706693c-29.723975 0-53.82079 24.095791-53.82079 53.82079L97.541035 835.246055c0 29.726022 24.096814 53.819766 53.82079 53.819766l721.81154 0c29.723975 0 53.82079-24.093744 53.82079-53.819766L926.994154 176.527482C926.993131 146.802484 902.896316 122.706693 873.172341 122.706693zM223.134475 794.413068l34.643008-125.359103 90.716094 90.714048L223.134475 794.413068zM783.641235 324.887438 388.446521 719.271694l-89.771583-89.771583 395.194714-394.384255c19.783579-19.783579 48.027853-23.617907 63.082734-8.563026l35.250852 35.250852C807.259142 276.859585 803.424814 305.10386 783.641235 324.887438z"/>
    </symbol>
  </defs>

  <defs>
    <symbol id="list-edit" viewBox="0 0 1024 1024">
      <path d="M98 98.2v830.1h830.1V98.2H98z m295 640.4l-139.6 47.2c-8 2.7-15.7-4.9-13-13l47.2-139.6c2.4-7.2 11.6-9.3 16.9-4l92.4 92.4c5.4 5.4 3.3 14.5-3.9 17z m314.8-304.5L433 708.9c-8 8-20.9 8-28.9 0l-86.8-86.8c-8-8-8-20.9 0-28.9l274.8-274.8c8-8 20.9-8 28.9 0l86.8 86.8c8 8 8 20.9 0 28.9z m72.4-72.3l-28.9 28.9c-8 8-20.9 8-28.9 0l-86.8-86.8c-8-8-8-20.9 0-28.9l28.9-28.9c8-8 20.9-8 28.9 0l86.8 86.8c7.9 7.9 7.9 20.9 0 28.9z"/>
    </symbol>
  </defs>

  <defs>
    <symbol id="newspaper" viewBox="0 0 1152 1024">
      <path d="M1104 128H224c-41.716 0-77.286 26.754-90.496 64H48c-26.51 0-48 21.49-48 48v544c0 61.856 50.144 112 112 112h992c26.51 0 48-21.49 48-48V176c0-26.51-21.49-48-48-48zM96 784V288h32v496c0 8.822-7.178 16-16 16s-16-7.178-16-16z m960 16H222.844c0.748-5.228 1.156-10.566 1.156-16V224h832v576zM344 560h272c13.254 0 24-10.746 24-24v-192c0-13.254-10.746-24-24-24H344c-13.254 0-24 10.746-24 24v192c0 13.254 10.746 24 24 24z m56-160h160v80h-160v-80z m-80 280v-48c0-13.254 10.746-24 24-24h272c13.254 0 24 10.746 24 24v48c0 13.254-10.746 24-24 24H344c-13.254 0-24-10.746-24-24z m384 0v-48c0-13.254 10.746-24 24-24h208c13.254 0 24 10.746 24 24v48c0 13.254-10.746 24-24 24H728c-13.254 0-24-10.746-24-24z m0-288v-48c0-13.254 10.746-24 24-24h208c13.254 0 24 10.746 24 24v48c0 13.254-10.746 24-24 24H728c-13.254 0-24-10.746-24-24z m0 144v-48c0-13.254 10.746-24 24-24h208c13.254 0 24 10.746 24 24v48c0 13.254-10.746 24-24 24H728c-13.254 0-24-10.746-24-24z"/>
    </symbol>
  </defs>

  <defs>
    <symbol id="person" viewBox="0 0 1024 1024">
      <path d="M512 512c94.293333 0 170.666667-76.586667 170.666667-170.666667 0-94.293333-76.373333-170.666667-170.666667-170.666666s-170.666667 76.373333-170.666667 170.666666c0 94.08 76.373333 170.666667 170.666667 170.666667z m0 85.333333c-113.706667 0-341.333333 56.96-341.333333 170.666667v85.333333h682.666666v-85.333333c0-113.706667-227.626667-170.666667-341.333333-170.666667z"/>
    </symbol>
  </defs>

  <defs>
    <symbol id="subject" viewBox="0 0 1024 1024">
      <path d="M597.333333 725.333333H170.666667v85.333334h426.666666v-85.333334z m256-341.333333H170.666667v85.333333h682.666666v-85.333333zM170.666667 640h682.666666v-85.333333H170.666667v85.333333z m0-426.666667v85.333334h682.666666v-85.333334H170.666667z"/>
    </symbol>
  </defs>

  <defs>
    <symbol id="trending-up" viewBox="0 0 1024 1024">
      <path d="M682.666667 256 780.373333 353.706667 572.16 561.92 401.493333 391.253333 85.333333 707.84 145.493333 768 401.493333 512 572.16 682.666667 840.96 414.293333 938.666667 512 938.666667 256 682.666667 256Z"/>
    </symbol>
  </defs>

  <defs>
    <symbol id="twitter" viewBox="0 0 1024 1024">
      <path d="M1024.032 194.432c-37.664 16.704-78.176 28-120.672 33.088 43.36-26.016 76.672-67.168 92.384-116.224-40.608 24.064-85.568 41.568-133.408 50.976-38.336-40.832-92.928-66.336-153.344-66.336-116.032 0-210.08 94.048-210.08 210.08 0 16.48 1.856 32.512 5.44 47.872-174.592-8.768-329.408-92.416-433.024-219.52-18.08 31.04-28.448 67.104-28.448 105.632 0 72.896 37.088 137.184 93.472 174.88-34.432-1.088-66.816-10.528-95.168-26.272-0.032 0.864-0.032 1.76-0.032 2.656 0 101.792 72.416 186.688 168.512 205.984-17.632 4.8-36.192 7.36-55.36 7.36-13.536 0-26.688-1.312-39.52-3.776 26.72 83.456 104.32 144.192 196.256 145.888-71.904 56.352-162.496 89.92-260.928 89.92-16.96 0-33.664-0.992-50.112-2.944 92.96 59.616 203.392 94.4 322.048 94.4 386.432 0 597.728-320.128 597.728-597.76 0-9.12-0.192-18.176-0.608-27.168 41.056-29.632 76.672-66.624 104.832-108.736z"/>
    </symbol>
  </defs>

  <defs>
    <symbol id="visibility" viewBox="0 0 1024 1024">
      <path d="M512 192C298.666667 192 115.2 324.266667 42.666667 512c72.533333 187.733333 256 320 469.333333 320 213.333333 0 396.8-132.266667 469.333333-320C908.8 324.266667 725.333333 192 512 192zM512 725.333333c-119.466667 0-213.333333-93.866667-213.333333-213.333333s93.866667-213.333333 213.333333-213.333333c119.466667 0 213.333333 93.866667 213.333333 213.333333S631.466667 725.333333 512 725.333333zM512 384c-72.533333 0-128 55.466667-128 128s55.466667 128 128 128c72.533333 0 128-55.466667 128-128S584.533333 384 512 384z"/>
    </symbol>
  </defs>

  <defs>
    <symbol id="watch-later" viewBox="0 0 1024 1024">
      <path d="M715.776 760.832c-12.288 0-23.552-5.12-32.768-13.312l-202.752-203.776a45.12 45.12 0 0 1 0-63.488l135.168-136.192c17.408-17.408 46.08-17.408 64.512 0 17.408 18.432 17.408 47.104 0 64.512L575.488 512l172.032 171.008a46.4 46.4 0 0 1 0 64.512c-9.216 8.192-20.48 13.312-31.744 13.312zM512 1024C229.376 1024 0 794.624 0 512S229.376 0 512 0s512 229.376 512 512-229.376 512-512 512z m0-949.248C271.36 74.752 75.776 271.36 75.776 512S271.36 949.248 512 949.248 949.248 752.64 949.248 512 752.64 74.752 512 74.752z"/>
    </symbol>
  </defs>

  <defs>
    <symbol id="caret-down" style="overflow: hidden;" viewBox="0 0 1024 1024">
      <path d="M804.571429 402.285714q0 14.857143-10.857143 25.714286l-256 256q-10.857143 10.857143-25.714286 10.857143t-25.714286-10.857143l-256-256q-10.857143-10.857143-10.857143-25.714286t10.857143-25.714286 25.714286-10.857143l512 0q14.857143 0 25.714286 10.857143t10.857143 25.714286z"/>
    </symbol>
  </defs>

  <defs>
    <symbol id="bar" style="overflow: hidden;" viewBox="0 0 1024 1024">
      <path d="M128 682.666667h768v85.333333H128v-85.333333z m0-213.333334h768v85.333334H128v-85.333334z m0-213.333333h768v85.333333H128V256z"/>
    </symbol>
  </defs>

</svg>
